/* XPM */
static char *dummy[]={
"32 32 692 2",
"h3 c None",
"iE c #000000",
"in c #000000",
"iD c #000000",
"h8 c #020303",
"iF c #000000",
"io c #000000",
"iR c #010101",
"iG c #000000",
"ip c #000000",
"iq c #000000",
"ir c #000000",
"is c #000000",
"iH c #020203",
"hT c #000000",
"iS c #070809",
"id c #1b1b1c",
"h9 c #101111",
"hU c #010101",
"hV c #020202",
"hW c #030303",
"hX c #040404",
"hY c #050505",
"hZ c #060606",
"Qt c #000000",
".x c #090909",
"iT c #131517",
"h4 c #070707",
"iU c #232628",
"h0 c #0a0a0a",
"it c #383a3c",
".# c #020202",
".a c #030303",
".b c #040404",
".c c #060606",
".d c #070707",
".e c #080808",
".f c #090909",
".g c #0a0a0a",
".h c #0b0b0b",
"h6 c #0c0c0c",
".i c #0d0d0d",
".j c #0e0e0e",
".k c #0f0f0f",
".w c #141414",
".l c #151515",
".v c #161616",
".u c #171717",
".t c #181818",
".s c #191919",
".r c #1a1a1a",
".q c #1b1b1b",
".p c #1c1c1c",
".o c #1d1d1d",
".n c #1e1e1e",
".m c #1f1f1f",
"iI c #323538",
"iV c #313538",
"h5 c #0a0a0a",
"h2 c #0b0b0b",
"iW c #3c3f43",
"iX c #414548",
".y c #010101",
"hD c #030303",
"ha c #040404",
"g1 c #050505",
"gL c #060606",
"go c #070707",
"fX c #080808",
"ft c #090909",
"e1 c #0a0a0a",
"ex c #0b0b0b",
"d5 c #0c0c0c",
"dB c #0d0d0d",
"c8 c #0e0e0e",
"cD c #0f0f0f",
"cc c #101010",
"bN c #111111",
"bk c #121212",
"aS c #131313",
"#X c #141414",
".1 c #151515",
"h7 c #0f0f0f",
"i. c #171717",
"iJ c #7d8184",
"i# c #212121",
"ie c #a4a7aa",
"iK c #b4b7ba",
"ia c #222222",
"ic c #212121",
"iL c #d4d7d8",
"im c #6b6f72",
"if c #6b6f73",
"iu c #d8dbdd",
"h1 c #141414",
"iN c #d3d4d5",
"iQ c #dadbdc",
"iM c #dddedf",
"h. c #002958",
"gr c #003573",
"f0 c #003673",
"gO c #003674",
"f2 c #00376b",
"gs c #003775",
"fv c #003874",
"gP c #003876",
"g3 c #003877",
"gZ c #003977",
"gY c #003978",
"g9 c #003979",
"e4 c #003a76",
"gt c #003a77",
"gI c #003a78",
"g4 c #003a79",
"gJ c #003a7a",
"gX c #003b7a",
"f3 c #003c73",
"eA c #003c78",
"gu c #003c7a",
"g5 c #003c7b",
"gl c #003d7a",
"g8 c #003d7b",
"gW c #003e7b",
"gk c #003e7c",
"d7 c #003f7a",
"gS c #003f7b",
"gv c #003f7c",
"gQ c #003f7d",
"g7 c #003f7e",
"gR c #00407d",
"g6 c #00407e",
"gT c #00417d",
"gj c #00417e",
"f4 c #00427a",
"gA c #00427d",
"gi c #00427e",
"gw c #00427f",
"f5 c #00437c",
"gx c #00437f",
"gH c #004380",
"gz c #00447e",
"gV c #004481",
"gh c #004580",
"gU c #004581",
"gg c #004681",
"gG c #004682",
"gy c #004781",
"gF c #004783",
"gK c #012a58",
"gN c #012b58",
"f1 c #013469",
"dE c #01417a",
"fS c #014681",
"gC c #014782",
"gf c #014881",
"gB c #014882",
"gD c #014883",
"gE c #014984",
"gq c #022b58",
"gm c #022c5a",
"fT c #024580",
"fU c #024783",
"fR c #024882",
"ge c #024981",
"fZ c #032d5a",
"fu c #032f5b",
"fV c #03325e",
"f6 c #034376",
"gc c #03487d",
"gd c #034980",
"hE c #050505",
"e3 c #05325e",
"fw c #05396d",
"gb c #054478",
"d# c #054479",
"ez c #063560",
".z c #070707",
"ga c #074070",
"hF c #080808",
"fr c #083863",
"fQ c #084173",
"g2 c #09090a",
"gM c #090a0a",
"gp c #090a0b",
"hb c #091624",
"d6 c #093862",
"hG c #0a0a0a",
"fY c #0a0a0b",
"e2 c #0a0b0b",
"ey c #0b0b0b",
"dC c #0b0b0c",
"c9 c #0b0c0c",
"cE c #0b0c0d",
"hB c #0b1826",
"hc c #0b1d30",
"dD c #0b3a65",
".A c #0c0c0c",
"bO c #0c0c0d",
"bl c #0c0d0d",
"#Y c #0c0d0e",
"hA c #0c1e32",
"fn c #0c4473",
"hC c #0d0c0c",
"hH c #0d0d0d",
".2 c #0d0d0e",
"hd c #0d1f32",
"fo c #0d4d83",
"h# c #0e0e0d",
".B c #0e0e0e",
"hz c #0e2134",
"d. c #0e3e67",
"fp c #0e4f87",
"he c #0f2134",
"g# c #0f3e66",
"fq c #0f528a",
"g0 c #10100f",
"hI c #101010",
"hy c #102236",
"hf c #102336",
".C c #111111",
"hx c #112538",
"eZ c #113f69",
"cF c #11416a",
"cG c #114a79",
"hJ c #121212",
"hg c #122639",
"gn c #131312",
"hw c #13263a",
".D c #141414",
"hh c #14273b",
"cd c #14446c",
"fW c #151514",
"hK c #151515",
"hv c #15283c",
"e5 c #154471",
"#0 c #155e97",
".E c #161615",
"hi c #16293c",
"fs c #171716",
"hL c #171717",
"hu c #172b3e",
"hj c #172c3e",
"bP c #17476e",
"#v c #176098",
"hS c #181818",
"ht c #182d40",
"aq c #185d93",
"e0 c #191918",
".F c #191919",
"hk c #192e41",
"hM c #1a1a1a",
"hl c #1a2e41",
"hs c #1a2f42",
"ev c #1a476e",
"bm c #1a486f",
"ew c #1b1a1a",
".G c #1b1b1b",
"hr c #1b3044",
".4 c #1b415e",
"hN c #1c1c1c",
"hm c #1c3043",
"d4 c #1d1d1c",
".H c #1d1d1d",
"hq c #1d3145",
"hn c #1d3245",
"hO c #1e1e1e",
"ho c #1e3245",
"hp c #1e3346",
"g. c #1e4361",
"aT c #1e4b70",
"#1 c #1e689f",
"dA c #1f1e1e",
"hR c #1f1f1f",
".3 c #1f394e",
"eX c #1f5a90",
"eY c #1f5d92",
"#w c #1f69a0",
".I c #202020",
"fm c #20384f",
".5 c #204763",
"ap c #204f77",
"c7 c #212120",
"hP c #212121",
".J c #222222",
"ib c #222323",
"#Z c #225279",
"eW c #225583",
"cC c #232222",
"hQ c #232323",
".K c #242423",
"ih c #242425",
"d3 c #244f74",
"#u c #24537b",
".L c #252525",
"ii c #252627",
".6 c #254c68",
"#2 c #2570a6",
"bM c #262625",
"il c #262727",
"ar c #26699a",
"#x c #2772a7",
"bj c #282827",
"ij c #28292a",
"fP c #284053",
"ik c #29292a",
"ce c #29587f",
"aR c #2a2929",
".7 c #2a516c",
".0 c #2b2b2b",
"ig c #2c2e2f",
"#W c #2d2c2c",
"#t c #2d2d2d",
"es c #2d6596",
"#3 c #2d78ac",
".M c #2e2e2e",
"dz c #2e577a",
"eB c #2f5579",
".8 c #2f5771",
"et c #2f6799",
"#y c #2f7aad",
".Z c #303030",
"eu c #30699b",
"f9 c #314a5a",
".Y c #323232",
"#s c #324657",
"fC c #324f69",
".X c #343434",
".9 c #345b75",
"#4 c #3580b2",
".W c #363636",
"as c #3674a0",
"#z c #3781b3",
".V c #383838",
"c6 c #385e80",
"#. c #385f79",
"## c #3a647c",
".U c #3b3b3b",
"fB c #3b536a",
"#5 c #3c87b8",
".T c #3d3d3d",
"fO c #3d4548",
"#a c #3e677f",
"#A c #3e88b9",
".S c #3f3e3e",
"d0 c #3f74a2",
".R c #404040",
"#b c #406982",
"d1 c #4074a2",
"cB c #416686",
"d2 c #4176a4",
"#6 c #418dbc",
".Q c #424242",
"#c c #426c84",
".P c #434342",
"#B c #438ebe",
".O c #444444",
".N c #454545",
"fA c #45586c",
"#7 c #4591c0",
"dZ c #46637f",
"at c #467fa7",
"#C c #4793c2",
"f8 c #48585b",
"bQ c #486d8b",
"#8 c #4996c4",
"cb c #4a6d8b",
"er c #4b5c6f",
"d8 c #4b6a85",
"#D c #4b98c6",
"dv c #4c7496",
"#9 c #4c99c7",
"iB c #4e5255",
"eV c #4e5968",
"a. c #4e9ac9",
"#E c #4f9bc9",
"fz c #505e6f",
"f7 c #505f60",
"dw c #5081ac",
"#r c #516576",
"dx c #5181ab",
"#F c #519ecc",
"iA c #525659",
"dy c #5283ac",
"fN c #535043",
"#q c #536778",
"bL c #537490",
"#d c #54778b",
"#p c #556a7a",
"au c #578aad",
"#o c #586e7e",
"#n c #5a7080",
"c1 c #5b6978",
"bi c #5b7a94",
"iz c #5c6063",
"fy c #5c6675",
"#m c #5c7282",
"c2 c #5d8aaf",
"#l c #5e7585",
"a# c #5fa4cd",
"cw c #61778b",
"#k c #617888",
"c3 c #618fb5",
"c4 c #628eb4",
"#j c #637b89",
"aQ c #638098",
"du c #646d78",
"c5 c #648fb5",
"av c #6492b1",
"#i c #657d8c",
"#h c #667f8f",
"dF c #677d91",
"bn c #678197",
"#g c #688291",
"#e c #688392",
"fx c #697686",
"ao c #69859c",
"fM c #6a5d42",
"#f c #6a8493",
"eU c #6b6e75",
"bF c #6e7987",
"aw c #6e97b3",
"b8 c #6f8ca5",
"#V c #708a9f",
"iC c #717579",
"cy c #729bbe",
"cx c #729dc0",
"iy c #73777a",
"cz c #739bbd",
"cA c #759cbe",
"ax c #779ab3",
"#G c #77b4d8",
"b7 c #787f8a",
"e6 c #798291",
"bc c #798898",
"cl c #7d7d7f",
"fD c #7e7862",
"ay c #7e9cb1",
"dY c #80858d",
"eC c #818996",
"aU c #8194a5",
"da c #82919f",
"fL c #836b42",
"c. c #83a8c6",
"b9 c #83aac9",
"c# c #84a7c6",
"az c #869eb0",
"ca c #86a8c6",
"do c #887463",
"bG c #88a8c2",
"aK c #8ca0b1",
"aJ c #8f96a0",
"cv c #91969d",
"aA c #91a3b1",
"d9 c #9298a3",
"ix c #93979b",
"bI c #93b3ce",
"cH c #949eaa",
"bJ c #94b3ce",
"bH c #94b6d1",
"ah c #95a4b2",
"ag c #97a3af",
"bK c #97b4ce",
"cf c #9ba4ae",
"fK c #9c7c46",
"ec c #9c8f75",
"aB c #9ca8b4",
"cQ c #9f917e",
"bd c #9fbed6",
"cN c #a1988b",
"bR c #a1a8b2",
"fl c #a26319",
"bf c #a2bed6",
"eT c #a35e2a",
"ad c #a3bbca",
"be c #a3c1d8",
"f# c #a4a4a7",
"bg c #a4bfd5",
"eq c #a5a8ad",
"cn c #a6918c",
"dG c #a6aab3",
"bb c #a6abb1",
"bh c #a6c0d6",
"cR c #a7957e",
"ck c #a7a59f",
"di c #a99e8b",
"aC c #a9b0b9",
"af c #aa713a",
"ac c #aac7d9",
"aa c #abcce1",
"dp c #ac9073",
"dT c #ac9782",
"aV c #acb4bb",
"ab c #adccdf",
"bo c #aeb3ba",
"aD c #aeb4bb",
"ai c #aec4d5",
"cL c #afaba5",
"c0 c #afb1b4",
"f. c #afb2b6",
"aL c #afcadf",
"aN c #b0c9dd",
"aM c #b1cbdf",
"cP c #b29e75",
"cM c #b2aca2",
"aO c #b2c9dc",
"fJ c #b38e4c",
"dL c #b3a68d",
"eb c #b3ab96",
"aE c #b3b7be",
"bZ c #b48b8b",
"bw c #b4a1a2",
"aI c #b5a296",
"bv c #b5a8a8",
"aP c #b5cbdd",
"#M c #b69f7e",
"aF c #b6ab95",
"bY c #b79f9e",
"eF c #b7b4b0",
"ep c #b8845a",
"iw c #b8bcc0",
"dJ c #b9b5a4",
"fk c #ba7a28",
"db c #babcc1",
"dX c #bba18f",
"e9 c #bbbcbf",
"bX c #bc9fa0",
"bE c #bcbbbd",
"aj c #bcd3e5",
"#H c #bcdaeb",
"cu c #be9e81",
"al c #bed3e3",
"ak c #bed4e5",
"ae c #bf9e70",
"#L c #bfcccc",
"#I c #bfdced",
"cZ c #c08d54",
"cV c #c09650",
"de c #c0b9af",
"aW c #c0c5c8",
"am c #c0d3e3",
"#J c #c0dcec",
"#K c #c1dbeb",
"ba c #c29875",
"dg c #c2b181",
"dj c #c2b7a9",
"dt c #c2bbb8",
"bW c #c2bbbb",
"an c #c2d5e4",
"#N c #c2d9e7",
"dR c #c3a274",
"dk c #c3b191",
"cO c #c4b57e",
"b6 c #c4b7af",
"aX c #c5c9cd",
"fj c #c68734",
"dh c #c6ad68",
"#O c #c6dbe9",
"cj c #c7c5c0",
"dI c #c7c6c6",
"e7 c #c8c8ca",
"#P c #c8dce9",
"bD c #c98f50",
"aY c #c9ccd0",
"#Q c #c9ddea",
"cW c #caa16a",
"fI c #caa255",
"cS c #cab17a",
"b0 c #cbbaa3",
"e8 c #cbcbcd",
"#S c #ccdde9",
"#R c #ccddea",
"ds c #ce8d3c",
"cm c #cececf",
"cI c #cecfd1",
"#T c #cedde9",
"eM c #cfae6f",
"ej c #cfc7c2",
"aZ c #cfd1d4",
"aH c #d08745",
"eG c #d0cfcf",
"fi c #d19541",
"el c #d1cfcf",
"#U c #d1dfea",
"ed c #d2d1d1",
"eS c #d38635",
"ea c #d4d5d6",
"aG c #d59854",
"dS c #d5d4d3",
"iO c #d5d6d6",
"iP c #d5d6d7",
"b5 c #d69942",
"em c #d6a560",
"a4 c #d6d4d4",
"eE c #d6d5d6",
"cK c #d6d6d7",
"a0 c #d6d7d9",
"ei c #d7b26a",
"eP c #d9b46e",
"dK c #d9c47d",
"fh c #daa44e",
"df c #dac8ae",
"eI c #dad2c3",
"a8 c #dad7d1",
"cr c #dbac54",
"fH c #dbb461",
"eO c #dbbd80",
"eN c #dbc490",
"a3 c #dbdbdc",
"a6 c #dbdcdc",
"eD c #dcdcdd",
"a7 c #dcdddd",
"eR c #dd9c44",
"bx c #dddcdc",
"a1 c #ddddde",
"ek c #dddee0",
"dW c #de983a",
"cs c #dea842",
"eQ c #deab55",
"fa c #dec282",
"bz c #decb96",
"bq c #dedede",
"iv c #dee1e2",
"ct c #e0a644",
"dU c #e0b159",
"dn c #e0bb63",
"ef c #e0d0a6",
"br c #e0e0e0",
"cJ c #e0e0e1",
"b# c #e19e4b",
"eH c #e1e1e2",
"b. c #e2ac54",
"fg c #e2b15c",
"cq c #e2bb55",
"a9 c #e2bf72",
"co c #e2c475",
"bC c #e3aa4c",
"bs c #e3e2e3",
"bp c #e3e3e3",
"a2 c #e3e3e4",
"eo c #e49c3c",
"cY c #e4ae48",
"b4 c #e4b24f",
"bB c #e4b755",
"dN c #e4e2df",
"by c #e4e4e4",
"cg c #e4e5e6",
"fG c #e5c06b",
"e. c #e5e4e5",
"dH c #e5e5e5",
"cX c #e6b953",
"b3 c #e6bf59",
"bA c #e6c15e",
"e# c #e6e6e7",
"a5 c #e6e7e8",
"dr c #e7b24c",
"cp c #e7c660",
"bS c #e7e7e7",
"ee c #e7e7e8",
"en c #e8b04a",
"dV c #e8b24c",
"ff c #e8bd69",
"fE c #e8c26d",
"fF c #e8c46f",
"dc c #e8e8e9",
"b2 c #e9c761",
"ch c #e9e9e9",
"dd c #e9e9ea",
"dq c #eac05c",
"b1 c #eace6e",
"bT c #eaeaea",
"dM c #eaeaeb",
"cU c #ebca67",
"dO c #ebd691",
"bt c #ebebeb",
"bU c #ececec",
"fe c #edc875",
"bu c #ededed",
"cT c #eed373",
"bV c #eeeeee",
"dl c #f0d780",
"ci c #f0f0f0",
"fd c #f1d07f",
"dm c #f1d67a",
"dQ c #f2d880",
"eJ c #f3df90",
"fc c #f4d786",
"fb c #f5d987",
"dP c #f5df89",
"eL c #f5df8c",
"eh c #f6e190",
"eg c #f7e394",
"eK c #f7e495",
"Qt.#.a.b.c.d.e.f.g.h.i.i.j.k.l.m.m.n.o.o.p.p.q.r.s.t.u.v.v.w.w.x",
".y.z.A.B.C.D.E.F.G.H.I.J.K.L.M.N.N.O.P.Q.R.S.T.U.V.W.X.Y.Z.M.0.1",
".y.2.3.4.5.6.7.8.9#.###a#b#c#d#e#f#g#h#i#j#k#l#m#n#o#p#q#r#s#t.1",
".y.2#u#v#w#x#y#z#A#B#C#D#E#F#G#H#I#J#K#L#M#N#O#P#Q#R#S#T#U#V#W#X",
".y#Y#Z#0#1#2#3#4#5#6#7#8#9a.a#aaabacadaeafagahaiajakalamanao.0#X",
".y#YapaqarasatauavawaxayazaAaBaCaDaEaFaGaHaIaJaKaLaMaNaOaPaQaRaS",
".y#YaTaUaVaWaXaYaZa0a1a2a3a4a5a6a7a8a9b.b#babbbcbdbebfbgbhbibjbk",
".yblbmbnbobpa7bqbrbsbtbububvbwbxbybzbAbBbCbDbEbFbGbHbIbJbKbLbMbN",
".ybObPbQbRbybpbSbTbUbVbtbWbXbYbZb0b1b2b3b4b5b6b7b8b9c.c#cacb.Kcc",
".ybOcdcecfa3bqcgchbVcicjckclcmcncocpcqcrcsctcucvcwcxcyczcAcBcCcD",
".ycEcFcGcHcIcJcKcLcMcNcOcPcQcRcScTcUcVcWcXcYcZc0c1c2c3c4c5c6c7c8",
".yc9d.d#dadbdcdddedfdgdhdidjdkdldmdndodpdqdrdsdtdudvdwdxdydzdAdB",
".ydCdDdEdFdGdHa6dIdJdKdLdMdNdOdPdQdRdSdTdUdVdWdXdYdZd0d1d2d3d4d5",
".ydCd6d7d8d9e.e#eaebecedeeefegeheiejekelemeneoepeqereseteuevewex",
".yeyezeAeBeCeDbyeEeFeGeHeIeJeKeLeMeNeOePeQeReSeTeUeVeWeXeYeZe0e1",
".ye2e3e4e5e6e7cKe8e9f.f#fafbfcfdfefffgfhfifjfkflfmfnfofpfqfrfsft",
".ye2fufvfwfxfyfzfAfBfCfDfEfFfGfHfIfJfKfLfMfNfOfPfQfRfSfTfUfVfWfX",
".yfYfZf0fvf1f2f3f4f5f6f7f8f9g.g#gagbgcgdgegfggghgigjgkglgkgmgngo",
".ygpgqgrgsgtgugvgwgigxgygzgAgBfSgCgDgEgEgFgGgHgjgkgkgugIgJgK.CgL",
".ygMgNf0gOgPgIgugQgvgQgHgRgSgxgTgigHgUgVgHgwgRgWgugXgYgZgJgKg0g1",
".yg2gKgsgsg3gYg4g5gugug6glgugvgWgkgRg6g6g7gQg8gXgYg4g9g9gJh.h#ha",
".ygMhbhchdhehfhghhhihjhkhlhmhnhohphnhqhrhshthuhvhwhxhyhzhAhBhChD",
".yhEhFhGhHhIhJhKhLhMhNhO.IhPhQ.L.LhQ.J.JhPhR.H.GhShKhJhI.BeyhFhD",
"hThUhUhVhVhWhXhXhYhYhZhZh0h1hKhKhKhK.Dh2hZhZhZhYhYhXhXhWhVhVhUhT",
"h3h3h3h3h3h3h3h3h3h3h3h3h4hKhKhKhKhKhKh5h3h3h3h3h3h3h3h3h3h3h3h3",
"h3h3h3h3h3h3h3h3h3h3h3h3h6hMhMhMhMhMhMh7h3h3h3h3h3h3h3h3h3h3h3h3",
"h3h3h3h3h3h3h3h3h8h9i.i#iahPibhQhQibhPici#i.h9h8h3h3h3h3h3h3h3h3",
"h3h3h3h3h3h3h3idieifigihiiijikikikikijilihigimieidh3h3h3h3h3h3h3",
"h3inioipiqirisitiuiviwixiyiziAiBiBiAiziCixiwiviuitisiriqipioiDiE",
"h3iEiEiniDiFiGiHiIiJiKiLiMiNiOiPiPiOiNiQiLiKiJiIiHiGioiFiniEiEh3",
"h3h3h3h3h3h3h3h3h3iRiSiTiUiViWiXiXiWiViUiTiSiRh3h3h3h3h3h3h3h3h3",
"h3h3h3h3h3h3h3h3h3h3h3h3h3h3h3h3h3h3h3h3h3h3h3h3h3h3h3h3h3h3h3h3"};
